<mxfile host="app.diagrams.net" modified="2023-11-17T16:09:05.089Z" agent="Mozilla/5.0 (Windows NT 10.0; Win64; x64) AppleWebKit/537.36 (KHTML, like Gecko) Chrome/119.0.0.0 Safari/537.36 Edg/119.0.0.0" etag="KNDmTGD-WCcSxwYsX_eQ" version="22.1.3" type="device">
  <diagram name="Page-1" id="Sf_wO0BxCZCpXFeMMJeU">
    <mxGraphModel dx="745" dy="1787" grid="1" gridSize="10" guides="1" tooltips="1" connect="1" arrows="1" fold="1" page="1" pageScale="1" pageWidth="827" pageHeight="1169" math="0" shadow="0">
      <root>
        <mxCell id="0" />
        <mxCell id="1" parent="0" />
        <mxCell id="u1xAUQRCHLYs3MyB0uTR-7" value="" style="edgeStyle=orthogonalEdgeStyle;rounded=0;orthogonalLoop=1;jettySize=auto;html=1;endArrow=none;endFill=0;strokeWidth=3;dashed=1;" edge="1" parent="1" source="sg7Wn6IfZCnJ4AFyhvGN-2" target="sg7Wn6IfZCnJ4AFyhvGN-14">
          <mxGeometry relative="1" as="geometry" />
        </mxCell>
        <mxCell id="sg7Wn6IfZCnJ4AFyhvGN-2" value="Repository source code" style="dashed=0;outlineConnect=0;html=1;align=center;labelPosition=center;verticalLabelPosition=bottom;verticalAlign=top;shape=mxgraph.weblogos.github;strokeWidth=2;" parent="1" vertex="1">
          <mxGeometry x="550" y="-1121" width="75" height="75" as="geometry" />
        </mxCell>
        <mxCell id="sg7Wn6IfZCnJ4AFyhvGN-4" value="gr-cap-ec2" style="points=[[0,0],[0.25,0],[0.5,0],[0.75,0],[1,0],[1,0.25],[1,0.5],[1,0.75],[1,1],[0.75,1],[0.5,1],[0.25,1],[0,1],[0,0.75],[0,0.5],[0,0.25]];outlineConnect=0;gradientColor=none;html=1;whiteSpace=wrap;fontSize=12;fontStyle=0;container=1;pointerEvents=0;collapsible=0;recursiveResize=0;shape=mxgraph.aws4.group;grIcon=mxgraph.aws4.group_aws_cloud_alt;strokeColor=#232F3E;fillColor=none;verticalAlign=top;align=left;spacingLeft=30;fontColor=#232F3E;dashed=0;" parent="1" vertex="1">
          <mxGeometry x="60" y="-1020" width="660" height="450" as="geometry" />
        </mxCell>
        <mxCell id="sg7Wn6IfZCnJ4AFyhvGN-5" value="Region&amp;nbsp;us-east-1" style="points=[[0,0],[0.25,0],[0.5,0],[0.75,0],[1,0],[1,0.25],[1,0.5],[1,0.75],[1,1],[0.75,1],[0.5,1],[0.25,1],[0,1],[0,0.75],[0,0.5],[0,0.25]];outlineConnect=0;gradientColor=none;html=1;whiteSpace=wrap;fontSize=12;fontStyle=0;container=1;pointerEvents=0;collapsible=0;recursiveResize=0;shape=mxgraph.aws4.group;grIcon=mxgraph.aws4.group_region;strokeColor=#00A4A6;fillColor=none;verticalAlign=top;align=left;spacingLeft=30;fontColor=#147EBA;dashed=1;" parent="sg7Wn6IfZCnJ4AFyhvGN-4" vertex="1">
          <mxGeometry x="12" y="40" width="468" height="350" as="geometry" />
        </mxCell>
        <mxCell id="sg7Wn6IfZCnJ4AFyhvGN-9" value="VPC&amp;nbsp;gr-cap-ec2 CIDR:&amp;nbsp;20.0.0.0/16" style="points=[[0,0],[0.25,0],[0.5,0],[0.75,0],[1,0],[1,0.25],[1,0.5],[1,0.75],[1,1],[0.75,1],[0.5,1],[0.25,1],[0,1],[0,0.75],[0,0.5],[0,0.25]];outlineConnect=0;gradientColor=none;html=1;whiteSpace=wrap;fontSize=12;fontStyle=0;container=1;pointerEvents=0;collapsible=0;recursiveResize=0;shape=mxgraph.aws4.group;grIcon=mxgraph.aws4.group_vpc2;strokeColor=#8C4FFF;fillColor=none;verticalAlign=top;align=left;spacingLeft=30;fontColor=#AAB7B8;dashed=0;" parent="sg7Wn6IfZCnJ4AFyhvGN-5" vertex="1">
          <mxGeometry x="26" y="40" width="424" height="290" as="geometry" />
        </mxCell>
        <mxCell id="u1xAUQRCHLYs3MyB0uTR-11" value="Availability Zone&amp;nbsp;" style="fillColor=none;strokeColor=#147EBA;dashed=1;verticalAlign=top;fontStyle=0;fontColor=#147EBA;whiteSpace=wrap;html=1;" vertex="1" parent="sg7Wn6IfZCnJ4AFyhvGN-9">
          <mxGeometry x="22" y="31" width="380" height="239" as="geometry" />
        </mxCell>
        <mxCell id="sg7Wn6IfZCnJ4AFyhvGN-11" value="Public subnet - gr-cap-1-public-a" style="points=[[0,0],[0.25,0],[0.5,0],[0.75,0],[1,0],[1,0.25],[1,0.5],[1,0.75],[1,1],[0.75,1],[0.5,1],[0.25,1],[0,1],[0,0.75],[0,0.5],[0,0.25]];outlineConnect=0;gradientColor=none;html=1;whiteSpace=wrap;fontSize=12;fontStyle=0;container=1;pointerEvents=0;collapsible=0;recursiveResize=0;shape=mxgraph.aws4.group;grIcon=mxgraph.aws4.group_security_group;grStroke=0;strokeColor=#7AA116;fillColor=#F2F6E8;verticalAlign=top;align=left;spacingLeft=30;fontColor=#248814;dashed=0;" parent="sg7Wn6IfZCnJ4AFyhvGN-9" vertex="1">
          <mxGeometry x="42" y="50" width="338" height="210" as="geometry" />
        </mxCell>
        <mxCell id="sg7Wn6IfZCnJ4AFyhvGN-13" value="Security group" style="fillColor=none;strokeColor=#DD3522;verticalAlign=top;fontStyle=0;fontColor=#DD3522;whiteSpace=wrap;html=1;" parent="sg7Wn6IfZCnJ4AFyhvGN-11" vertex="1">
          <mxGeometry x="9" y="30" width="295" height="160" as="geometry" />
        </mxCell>
        <mxCell id="sg7Wn6IfZCnJ4AFyhvGN-3" value="gr-cap-ec2&lt;br&gt;W2022 Server With IIS" style="sketch=0;points=[[0,0,0],[0.25,0,0],[0.5,0,0],[0.75,0,0],[1,0,0],[0,1,0],[0.25,1,0],[0.5,1,0],[0.75,1,0],[1,1,0],[0,0.25,0],[0,0.5,0],[0,0.75,0],[1,0.25,0],[1,0.5,0],[1,0.75,0]];outlineConnect=0;fontColor=#232F3E;fillColor=#ED7100;strokeColor=#ffffff;dashed=0;verticalLabelPosition=bottom;verticalAlign=top;align=center;html=1;fontSize=12;fontStyle=0;aspect=fixed;shape=mxgraph.aws4.resourceIcon;resIcon=mxgraph.aws4.ec2;" parent="sg7Wn6IfZCnJ4AFyhvGN-11" vertex="1">
          <mxGeometry x="119" y="70" width="78" height="78" as="geometry" />
        </mxCell>
        <mxCell id="sg7Wn6IfZCnJ4AFyhvGN-17" value="" style="sketch=0;outlineConnect=0;fontColor=#232F3E;gradientColor=none;fillColor=#8C4FFF;strokeColor=none;dashed=0;verticalLabelPosition=bottom;verticalAlign=top;align=center;html=1;fontSize=12;fontStyle=0;aspect=fixed;pointerEvents=1;shape=mxgraph.aws4.internet_gateway;" parent="sg7Wn6IfZCnJ4AFyhvGN-9" vertex="1">
          <mxGeometry x="217" y="-21" width="40" height="40" as="geometry" />
        </mxCell>
        <mxCell id="u1xAUQRCHLYs3MyB0uTR-15" style="edgeStyle=orthogonalEdgeStyle;rounded=0;orthogonalLoop=1;jettySize=auto;html=1;entryX=1;entryY=0.25;entryDx=0;entryDy=0;entryPerimeter=0;curved=1;" edge="1" parent="sg7Wn6IfZCnJ4AFyhvGN-9" source="sg7Wn6IfZCnJ4AFyhvGN-17" target="sg7Wn6IfZCnJ4AFyhvGN-3">
          <mxGeometry relative="1" as="geometry" />
        </mxCell>
        <mxCell id="u1xAUQRCHLYs3MyB0uTR-1" value="Health Check" style="sketch=0;points=[[0,0,0],[0.25,0,0],[0.5,0,0],[0.75,0,0],[1,0,0],[0,1,0],[0.25,1,0],[0.5,1,0],[0.75,1,0],[1,1,0],[0,0.25,0],[0,0.5,0],[0,0.75,0],[1,0.25,0],[1,0.5,0],[1,0.75,0]];outlineConnect=0;fontColor=#232F3E;fillColor=#8C4FFF;strokeColor=#ffffff;dashed=0;verticalLabelPosition=bottom;verticalAlign=top;align=center;html=1;fontSize=12;fontStyle=0;aspect=fixed;shape=mxgraph.aws4.resourceIcon;resIcon=mxgraph.aws4.route_53;" vertex="1" parent="sg7Wn6IfZCnJ4AFyhvGN-4">
          <mxGeometry x="520" y="40" width="78" height="78" as="geometry" />
        </mxCell>
        <mxCell id="u1xAUQRCHLYs3MyB0uTR-2" value="EC2 Monitoring" style="sketch=0;points=[[0,0,0],[0.25,0,0],[0.5,0,0],[0.75,0,0],[1,0,0],[0,1,0],[0.25,1,0],[0.5,1,0],[0.75,1,0],[1,1,0],[0,0.25,0],[0,0.5,0],[0,0.75,0],[1,0.25,0],[1,0.5,0],[1,0.75,0]];points=[[0,0,0],[0.25,0,0],[0.5,0,0],[0.75,0,0],[1,0,0],[0,1,0],[0.25,1,0],[0.5,1,0],[0.75,1,0],[1,1,0],[0,0.25,0],[0,0.5,0],[0,0.75,0],[1,0.25,0],[1,0.5,0],[1,0.75,0]];outlineConnect=0;fontColor=#232F3E;fillColor=#E7157B;strokeColor=#ffffff;dashed=0;verticalLabelPosition=bottom;verticalAlign=top;align=center;html=1;fontSize=12;fontStyle=0;aspect=fixed;shape=mxgraph.aws4.resourceIcon;resIcon=mxgraph.aws4.cloudwatch_2;" vertex="1" parent="sg7Wn6IfZCnJ4AFyhvGN-4">
          <mxGeometry x="520" y="180" width="78" height="78" as="geometry" />
        </mxCell>
        <mxCell id="u1xAUQRCHLYs3MyB0uTR-3" value="gr-cap-1&lt;br style=&quot;border-color: var(--border-color);&quot;&gt;http://gr-cap-1.s3-website-us-east-1&lt;br&gt;.amazonaws.com" style="sketch=0;points=[[0,0,0],[0.25,0,0],[0.5,0,0],[0.75,0,0],[1,0,0],[0,1,0],[0.25,1,0],[0.5,1,0],[0.75,1,0],[1,1,0],[0,0.25,0],[0,0.5,0],[0,0.75,0],[1,0.25,0],[1,0.5,0],[1,0.75,0]];outlineConnect=0;fontColor=#232F3E;fillColor=#7AA116;strokeColor=#ffffff;dashed=0;verticalLabelPosition=bottom;verticalAlign=top;align=center;html=1;fontSize=12;fontStyle=0;aspect=fixed;shape=mxgraph.aws4.resourceIcon;resIcon=mxgraph.aws4.s3;" vertex="1" parent="sg7Wn6IfZCnJ4AFyhvGN-4">
          <mxGeometry x="520" y="310" width="78" height="78" as="geometry" />
        </mxCell>
        <mxCell id="u1xAUQRCHLYs3MyB0uTR-4" style="edgeStyle=orthogonalEdgeStyle;rounded=0;orthogonalLoop=1;jettySize=auto;html=1;exitX=0.5;exitY=1;exitDx=0;exitDy=0;exitPerimeter=0;" edge="1" parent="sg7Wn6IfZCnJ4AFyhvGN-4" source="u1xAUQRCHLYs3MyB0uTR-3" target="u1xAUQRCHLYs3MyB0uTR-3">
          <mxGeometry relative="1" as="geometry" />
        </mxCell>
        <mxCell id="u1xAUQRCHLYs3MyB0uTR-14" style="edgeStyle=orthogonalEdgeStyle;rounded=0;orthogonalLoop=1;jettySize=auto;html=1;entryX=0;entryY=0.5;entryDx=0;entryDy=0;entryPerimeter=0;curved=1;exitX=1;exitY=0.75;exitDx=0;exitDy=0;exitPerimeter=0;" edge="1" parent="sg7Wn6IfZCnJ4AFyhvGN-4" source="sg7Wn6IfZCnJ4AFyhvGN-3" target="u1xAUQRCHLYs3MyB0uTR-3">
          <mxGeometry relative="1" as="geometry" />
        </mxCell>
        <mxCell id="u1xAUQRCHLYs3MyB0uTR-9" style="edgeStyle=orthogonalEdgeStyle;rounded=0;orthogonalLoop=1;jettySize=auto;html=1;curved=1;strokeWidth=3;" edge="1" parent="1" source="sg7Wn6IfZCnJ4AFyhvGN-14" target="sg7Wn6IfZCnJ4AFyhvGN-17">
          <mxGeometry relative="1" as="geometry" />
        </mxCell>
        <mxCell id="sg7Wn6IfZCnJ4AFyhvGN-14" value="" style="sketch=0;outlineConnect=0;fontColor=#232F3E;gradientColor=none;fillColor=#232F3D;strokeColor=none;dashed=0;verticalLabelPosition=bottom;verticalAlign=top;align=center;html=1;fontSize=12;fontStyle=0;aspect=fixed;pointerEvents=1;shape=mxgraph.aws4.user;" parent="1" vertex="1">
          <mxGeometry x="375" y="-1122" width="78" height="78" as="geometry" />
        </mxCell>
      </root>
    </mxGraphModel>
  </diagram>
</mxfile>
